<?xml version="1.0" standalone="no"?>
<!DOCTYPE svg PUBLIC "-//W3C//DTD SVG 20010904//EN"
 "http://www.w3.org/TR/2001/REC-SVG-20010904/DTD/svg10.dtd">
<svg version="1.0" xmlns="http://www.w3.org/2000/svg"
 width="1024.000000pt" height="1024.000000pt" viewBox="0 0 1024.000000 1024.000000"
 preserveAspectRatio="xMidYMid meet">
<metadata>
Created by potrace 1.14, written by Peter Selinger 2001-2017
</metadata>
<g transform="translate(0.000000,1024.000000) scale(0.100000,-0.100000)"
fill="#000000" stroke="none">
<path d="M4987 10035 c-1 -2 -65 -5 -142 -9 -77 -3 -151 -8 -165 -10 -14 -3
-55 -7 -92 -11 -64 -6 -82 -8 -153 -20 -16 -3 -52 -8 -80 -11 -27 -3 -52 -7
-55 -9 -3 -2 -26 -6 -50 -10 -25 -4 -76 -13 -115 -21 -38 -9 -78 -17 -88 -19
-10 -2 -27 -7 -37 -10 -10 -3 -28 -8 -39 -10 -122 -23 -542 -156 -646 -204
-11 -6 -72 -31 -135 -57 -149 -61 -424 -202 -586 -299 -465 -281 -879 -631
-1229 -1040 -33 -38 -63 -72 -66 -75 -20 -16 -239 -315 -311 -425 -290 -442
-507 -921 -642 -1422 -33 -122 -79 -323 -90 -388 -2 -16 -11 -73 -20 -125 -19
-124 -24 -153 -31 -225 -3 -33 -8 -74 -10 -90 -25 -183 -25 -785 0 -936 2 -13
6 -53 10 -89 13 -143 37 -286 100 -585 38 -180 181 -614 262 -794 14 -31 39
-87 56 -126 322 -717 877 -1408 1522 -1894 75 -57 320 -225 390 -268 184 -112
440 -246 645 -336 246 -108 647 -238 875 -283 11 -2 29 -6 40 -8 129 -27 189
-39 300 -55 72 -11 162 -23 200 -26 39 -4 84 -9 100 -11 182 -22 700 -21 875
1 19 3 60 7 90 10 125 11 233 26 360 51 14 3 48 9 75 14 91 17 109 21 284 66
239 61 650 202 686 235 5 5 15 9 22 9 22 0 346 159 478 235 819 468 1476 1135
1925 1953 100 184 217 436 274 592 15 41 31 84 36 95 39 94 135 422 174 596
38 173 77 408 91 554 4 33 8 76 10 95 22 181 22 691 0 875 -2 17 -6 62 -10
100 -4 39 -9 77 -10 86 -2 9 -6 40 -10 70 -31 254 -136 687 -226 930 -17 46
-34 95 -39 109 -31 101 -203 478 -290 635 -322 585 -747 1089 -1284 1522 -140
113 -421 304 -602 409 -97 56 -446 234 -459 234 -3 0 -32 12 -63 26 -108 50
-542 208 -555 202 -1 0 -29 7 -62 17 -77 22 -377 92 -430 99 -39 6 -56 9 -115
21 -14 2 -45 7 -70 10 -25 3 -76 10 -115 15 -169 22 -323 31 -558 34 -108 1
-198 2 -200 1z m493 -189 c30 -3 84 -8 120 -11 67 -6 136 -14 180 -20 14 -2
45 -7 70 -10 113 -16 327 -59 450 -91 74 -19 145 -37 156 -39 12 -3 108 -34
214 -70 417 -143 793 -330 1150 -573 124 -85 303 -218 371 -276 152 -132 203
-179 344 -320 380 -382 678 -801 915 -1291 105 -216 220 -511 276 -705 18 -63
101 -390 98 -390 -1 0 2 -15 6 -32 5 -18 11 -46 14 -63 3 -16 12 -70 20 -120
8 -49 17 -112 21 -140 3 -27 8 -66 10 -85 17 -132 29 -349 28 -535 0 -159 -10
-406 -18 -435 -2 -8 -6 -46 -10 -85 -3 -38 -8 -81 -10 -95 -2 -14 -6 -43 -10
-65 -18 -125 -41 -252 -70 -387 -24 -112 -100 -367 -165 -553 -63 -181 -232
-553 -308 -680 -7 -11 -50 -84 -96 -161 -398 -667 -976 -1241 -1666 -1654
-115 -69 -393 -213 -480 -250 -30 -12 -73 -31 -95 -40 -203 -91 -672 -240
-840 -266 -22 -3 -43 -8 -46 -10 -3 -2 -20 -6 -37 -9 -18 -3 -46 -7 -64 -10
-17 -3 -34 -7 -37 -9 -3 -2 -33 -7 -66 -10 -33 -4 -67 -9 -75 -11 -8 -3 -35
-7 -60 -9 -25 -3 -67 -8 -95 -12 -229 -31 -745 -36 -971 -10 -16 2 -56 7 -89
11 -290 31 -555 86 -853 176 -122 36 -298 96 -347 118 -11 5 -56 24 -100 42
-474 194 -971 508 -1360 858 -103 92 -363 359 -440 451 -44 52 -82 97 -86 100
-16 13 -194 258 -266 365 -220 330 -417 728 -546 1105 -30 86 -94 299 -101
332 -2 13 -16 70 -30 128 -15 58 -37 170 -50 250 -32 188 -35 209 -42 288 -4
37 -8 70 -10 73 -8 14 -18 274 -18 464 0 183 9 411 18 460 2 11 7 52 10 90 4
39 11 95 16 125 5 30 11 69 13 85 10 66 39 219 42 225 2 3 6 21 9 40 3 19 11
53 16 75 6 22 13 51 16 65 30 144 148 494 238 702 79 184 205 435 275 548 5 8
28 47 52 85 99 166 289 425 438 600 365 427 787 776 1286 1063 110 63 378 194
505 247 63 26 129 53 145 60 107 45 483 160 625 190 8 2 36 8 63 14 26 6 64
14 85 17 20 3 40 8 43 9 3 2 28 7 55 11 27 3 58 8 69 10 32 7 145 22 210 29
33 4 71 8 84 10 13 3 81 7 150 11 69 3 127 7 129 9 5 5 467 -3 522 -9z"/>
<path d="M4874 9474 c-167 -34 -261 -146 -269 -321 -11 -232 119 -374 340
-375 190 -1 316 80 368 235 24 73 19 227 -11 292 -66 144 -231 210 -428 169z
m178 -68 c83 -40 128 -142 128 -290 0 -170 -68 -272 -186 -280 -142 -9 -232
100 -239 291 -4 115 17 195 65 243 60 60 152 74 232 36z"/>
<path d="M5480 9446 c0 -21 5 -26 24 -26 51 0 54 -25 26 -245 -5 -44 -12 -102
-16 -130 -3 -27 -10 -79 -15 -115 -6 -36 -11 -71 -11 -78 -1 -8 -12 -19 -25
-25 -24 -11 -31 -36 -10 -38 65 -7 225 -27 272 -34 59 -9 140 -19 164 -19 23
-1 26 5 41 82 l16 82 -22 0 c-15 0 -23 -8 -27 -27 -11 -53 -29 -66 -88 -64
-60 2 -135 10 -161 17 -13 4 -17 13 -13 37 2 18 7 59 11 92 3 33 8 77 10 97 2
20 6 49 8 65 3 15 8 53 11 83 20 176 26 190 76 190 22 0 39 15 39 35 0 3 -27
7 -140 21 -82 11 -117 15 -142 20 -25 5 -28 3 -28 -20z"/>
<path d="M4257 9401 c-86 -22 -97 -28 -95 -46 2 -16 10 -20 43 -20 39 0 40 -1
57 -52 26 -77 97 -353 91 -353 -11 0 -334 228 -441 312 l-63 49 -98 -27 c-87
-23 -98 -28 -93 -46 4 -15 12 -19 41 -16 44 4 51 -8 99 -182 96 -354 99 -373
47 -386 -26 -6 -29 -12 -20 -36 5 -12 25 -9 115 15 101 28 108 32 99 50 -8 14
-18 18 -38 14 -15 -3 -32 -2 -38 1 -7 4 -31 75 -53 157 -23 83 -50 178 -60
213 -10 34 -14 62 -10 62 5 0 73 -46 152 -103 79 -57 200 -143 270 -190 118
-81 129 -87 165 -81 21 3 40 8 42 10 2 2 -5 37 -17 77 -33 114 -103 370 -108
392 -2 11 -9 43 -17 70 -16 65 -12 81 24 94 21 7 29 16 27 27 -4 25 -12 24
-121 -5z"/>
<path d="M6374 9279 c-137 -17 -227 -99 -278 -255 -60 -182 8 -337 181 -416
119 -54 241 -56 341 -6 194 97 265 397 129 547 -52 56 -171 114 -262 128 -16
2 -34 5 -40 7 -5 1 -38 -1 -71 -5z m187 -86 c110 -50 142 -180 84 -346 -64
-186 -177 -258 -310 -197 -82 37 -121 118 -111 228 7 86 21 134 58 203 68 129
160 166 279 112z"/>
<path d="M3368 9116 c-60 -32 -75 -45 -68 -56 5 -8 7 -26 4 -40 -11 -48 -85
-285 -101 -322 l-16 -37 -53 109 c-30 60 -54 118 -54 128 0 10 11 25 25 32 26
14 32 34 14 46 -6 3 -71 -24 -144 -62 -117 -59 -132 -70 -124 -86 8 -14 14
-15 35 -8 41 16 51 12 77 -32 41 -71 227 -444 227 -456 0 -6 -13 -20 -30 -32
-34 -24 -31 -55 4 -46 32 9 256 126 256 134 -1 24 -17 31 -47 20 -42 -16 -49
-9 -111 111 -56 105 -58 111 -42 111 15 0 188 -65 298 -112 l92 -40 85 44 c57
29 84 48 82 58 -2 10 -13 14 -34 13 -21 -2 -103 26 -240 81 -230 93 -221 85
-189 166 7 19 30 79 51 132 27 71 46 105 71 127 21 19 32 36 28 46 -8 20 -7
20 -96 -29z"/>
<path d="M7155 8901 c-184 -30 -322 -256 -269 -440 39 -137 148 -232 333 -290
89 -29 161 -38 161 -20 0 8 17 43 38 79 30 52 42 65 62 65 44 0 35 30 -17 57
-65 33 -139 75 -168 94 -24 16 -45 12 -45 -8 0 -6 18 -27 40 -47 l40 -36 -37
-63 c-36 -60 -39 -62 -71 -57 -86 13 -170 85 -197 166 -42 125 23 298 143 381
43 30 54 33 122 33 64 0 83 -4 127 -29 57 -31 104 -76 127 -120 13 -26 13 -33
-1 -68 -12 -30 -13 -41 -3 -53 10 -13 20 -5 61 50 27 35 49 68 49 72 0 11 -84
91 -130 125 -42 31 -142 81 -190 96 -48 15 -127 21 -175 13z"/>
<path d="M2615 8689 c-27 -22 -65 -52 -84 -67 -18 -15 -48 -39 -65 -53 -17
-14 -58 -45 -91 -70 -86 -64 -96 -74 -89 -92 8 -21 15 -21 40 -2 40 30 43 28
205 -180 189 -242 188 -240 182 -281 -3 -18 -2 -34 2 -34 4 0 46 31 94 68 47
38 115 90 151 117 36 27 67 52 70 55 3 3 20 16 37 28 l32 23 -46 70 c-25 38
-49 69 -52 69 -4 0 -12 -5 -19 -12 -9 -9 -6 -20 10 -50 28 -49 20 -64 -82
-145 l-79 -63 -33 43 c-18 23 -35 44 -38 47 -3 3 -25 31 -49 63 -49 65 -53 54
36 117 49 35 64 37 88 10 10 -11 24 -20 31 -20 26 0 25 23 -3 58 -16 20 -46
58 -66 84 -32 43 -37 46 -51 32 -14 -14 -14 -18 -1 -37 8 -12 15 -27 15 -33 0
-12 -112 -104 -127 -104 -4 0 -39 41 -76 91 l-68 91 28 25 c15 13 55 42 87 64
l60 40 29 -31 c23 -24 32 -28 43 -19 11 9 10 17 -9 50 -12 22 -31 50 -42 64
l-20 24 -50 -40z"/>
<path d="M7850 8525 c-11 -13 -9 -20 9 -38 32 -35 30 -46 -32 -120 -11 -12
-33 -39 -50 -60 -18 -22 -42 -51 -55 -65 -12 -15 -57 -69 -100 -119 -83 -100
-111 -116 -143 -87 -18 16 -21 17 -36 1 -9 -9 -15 -18 -12 -20 20 -14 188
-155 202 -169 10 -10 24 -18 31 -18 23 0 26 27 5 46 -10 9 -19 27 -19 38 0 25
315 405 350 423 21 10 28 9 45 -6 11 -10 26 -16 33 -14 27 10 7 41 -69 103
-44 36 -95 77 -113 92 -30 25 -35 26 -46 13z"/>
<path d="M5067 8434 c-1 -1 -54 -4 -117 -8 -188 -11 -270 -21 -485 -62 -229
-42 -551 -153 -794 -273 -620 -305 -1133 -793 -1470 -1401 -176 -318 -316
-718 -367 -1050 -18 -119 -24 -162 -29 -220 -3 -36 -8 -81 -11 -100 -6 -42 -6
-442 0 -485 2 -16 7 -66 11 -110 10 -113 50 -340 85 -475 102 -399 271 -764
514 -1110 33 -47 62 -87 65 -90 4 -3 19 -23 35 -45 100 -135 362 -403 521
-531 423 -340 910 -573 1425 -683 52 -11 115 -22 140 -26 25 -3 52 -8 60 -10
8 -2 38 -6 65 -9 28 -3 77 -9 110 -13 79 -10 531 -10 620 0 39 4 86 9 106 11
20 2 55 7 77 11 23 4 52 8 65 10 19 2 107 18 162 29 207 42 508 145 730 251
230 110 494 277 671 424 114 95 160 137 249 226 500 500 824 1116 944 1798 11
62 22 135 25 162 3 28 9 77 13 110 10 78 10 506 1 610 -32 352 -124 711 -263
1031 -53 121 -158 328 -195 384 -9 14 -43 66 -75 115 -278 425 -641 777 -1075
1041 -125 77 -298 166 -400 209 -36 15 -78 33 -95 41 -98 44 -421 141 -570
170 -73 14 -175 31 -235 39 -25 3 -61 8 -80 10 -54 7 -427 23 -433 19z"/>
<path d="M2092 8253 c-34 -38 -126 -135 -206 -217 -136 -139 -158 -166 -138
-166 4 0 29 -21 55 -45 26 -25 52 -45 58 -45 22 0 19 32 -5 61 -14 17 -26 34
-26 37 0 4 26 35 58 70 l57 63 198 -192 c108 -105 197 -199 197 -209 0 -9 -9
-25 -20 -35 -15 -14 -17 -21 -9 -32 13 -15 36 -17 41 -3 2 5 45 52 97 105 88
89 94 97 78 112 -15 16 -18 15 -40 -5 -29 -28 -32 -28 -71 4 -54 46 -366 348
-366 355 0 12 112 119 125 119 6 0 25 -12 40 -26 25 -23 29 -24 44 -10 14 15
10 21 -39 71 -30 30 -57 55 -61 55 -3 0 -34 -30 -67 -67z"/>
<path d="M8382 8018 c-8 -8 -6 -17 8 -36 26 -32 17 -48 -63 -113 -34 -28 -71
-58 -82 -68 -195 -160 -277 -218 -298 -213 -10 2 -25 1 -34 -2 -14 -6 -11 -12
13 -39 17 -18 64 -75 105 -127 86 -108 144 -147 225 -154 57 -4 96 7 142 41
63 47 78 114 42 198 l-20 46 30 -21 c69 -49 179 -32 220 35 41 66 14 139 -100
270 -38 44 -89 105 -112 137 -44 59 -56 66 -76 46z m188 -287 c15 -53 -34
-114 -102 -126 -44 -8 -84 11 -116 54 l-22 31 86 68 87 69 29 -33 c16 -18 33
-46 38 -63z m-256 -111 c30 -36 46 -87 39 -124 -11 -56 -107 -127 -164 -121
-13 1 -29 3 -36 4 -6 0 -30 20 -53 43 -34 35 -38 44 -27 55 26 27 202 172 209
172 3 1 18 -13 32 -29z"/>
<path d="M1466 7505 c-9 -13 -16 -26 -16 -29 0 -2 -46 -85 -103 -183 -57 -98
-110 -189 -118 -203 -8 -14 -22 -36 -31 -49 -10 -13 -18 -29 -18 -35 0 -6 32
-27 71 -46 59 -29 72 -32 79 -20 7 11 0 23 -28 47 l-37 32 33 63 c17 35 36 69
41 77 7 11 26 4 92 -34 46 -26 104 -59 128 -72 24 -14 94 -55 155 -92 93 -55
111 -70 109 -89 -2 -12 -4 -32 -5 -44 -2 -13 3 -24 12 -25 10 -2 33 30 69 94
30 54 63 111 74 126 18 26 18 30 4 45 -15 14 -18 13 -37 -11 -12 -15 -28 -27
-37 -27 -8 0 -47 17 -87 38 -60 33 -385 220 -394 227 -2 1 16 35 40 74 46 76
63 85 107 54 23 -15 25 -15 38 3 12 17 12 20 -2 29 -9 6 -39 25 -67 43 -27 17
-51 32 -53 32 -1 0 -10 -11 -19 -25z"/>
<path d="M8940 7143 c-88 -10 -126 -15 -265 -29 -27 -3 -63 -7 -80 -9 -16 -2
-66 -7 -110 -11 -44 -4 -87 -8 -95 -9 -18 -3 -51 13 -65 32 -6 8 -18 11 -28 8
-15 -6 -10 -19 35 -106 28 -54 53 -99 57 -99 24 1 30 17 19 48 -16 42 -7 50
71 63 51 9 65 9 76 -2 19 -20 105 -184 105 -200 0 -8 -23 -39 -50 -69 l-50
-55 -28 33 c-24 30 -30 32 -41 19 -10 -13 -7 -26 20 -74 18 -32 46 -85 62
-118 37 -75 45 -85 63 -78 10 4 12 15 8 42 -5 35 1 44 177 261 275 341 247
300 229 335 l-15 30 -95 -12z m-81 -82 c-30 -42 -144 -180 -150 -180 -5 -1
-89 151 -89 162 0 6 62 15 155 23 39 3 72 8 74 10 14 13 21 1 10 -15z"/>
<path d="M1096 6838 c-2 -7 -18 -54 -35 -105 -17 -51 -31 -94 -31 -96 0 -3 9
-7 19 -10 14 -3 23 3 31 24 7 15 20 31 31 34 20 7 311 -90 395 -130 65 -32 90
-80 80 -152 -14 -105 -73 -176 -146 -175 -49 1 -402 118 -429 143 -16 15 -18
24 -11 48 7 25 5 30 -13 35 -12 3 -21 4 -22 3 0 -1 -22 -65 -48 -141 -36 -106
-44 -142 -34 -148 21 -13 28 -9 38 22 8 23 17 30 36 30 14 0 113 -30 221 -67
225 -76 282 -83 344 -45 108 67 179 297 124 402 -40 75 -80 98 -331 186 -88
31 -166 61 -172 66 -8 6 -11 22 -8 39 4 21 0 31 -15 39 -15 8 -21 8 -24 -2z"/>
<path d="M9249 6603 c-1 -5 0 -22 1 -39 0 -17 -5 -35 -12 -41 -11 -9 -421
-129 -501 -147 -24 -6 -30 -2 -48 29 -22 37 -27 39 -46 27 -9 -5 -7 -22 7 -67
10 -33 24 -81 31 -107 14 -51 16 -53 38 -39 9 6 12 19 8 39 -4 19 -1 34 7 41
16 13 103 42 251 82 61 17 127 37 148 45 46 17 54 33 -83 -166 -239 -346 -262
-385 -257 -425 7 -48 10 -50 55 -36 109 35 461 136 521 150 42 9 60 -1 74 -42
4 -11 14 -17 24 -15 22 5 22 -1 -12 124 -25 89 -30 101 -48 96 -15 -4 -18 -11
-14 -37 3 -17 2 -36 -1 -41 -9 -13 -123 -53 -227 -80 -5 -2 -49 -14 -98 -27
-51 -15 -84 -20 -80 -14 33 54 223 332 281 411 40 55 71 104 68 110 -2 6 -14
48 -27 94 -18 63 -28 82 -41 82 -10 0 -18 -3 -19 -7z"/>
<path d="M829 5998 c-1 -24 -14 -119 -45 -338 -41 -284 -39 -257 -12 -258 12
0 48 -2 79 -6 50 -6 57 -5 61 12 5 16 -3 22 -36 32 -51 15 -56 24 -49 75 7 50
10 75 12 99 1 18 26 19 135 1 11 -2 39 -6 61 -10 22 -3 54 -7 70 -10 17 -3 46
-7 65 -9 111 -14 197 -29 213 -37 11 -6 17 -22 17 -43 0 -25 5 -35 20 -39 13
-3 20 0 21 9 1 8 2 17 3 22 1 4 6 36 10 72 5 36 10 74 12 85 2 11 7 41 10 68
6 43 5 47 -15 47 -16 0 -23 -8 -27 -30 -8 -35 -27 -43 -91 -35 -26 3 -66 8
-88 10 -22 3 -49 7 -60 9 -27 5 -90 14 -145 21 -182 24 -195 28 -186 50 3 8 8
40 12 72 8 74 17 85 68 81 35 -2 41 0 44 17 2 18 -6 22 -62 33 -82 15 -96 15
-97 0z"/>
<path d="M9483 5712 c-16 -2 -20 -9 -17 -26 2 -12 -2 -30 -9 -39 -16 -21 -29
-23 -257 -42 -36 -3 -85 -7 -110 -10 -25 -3 -79 -7 -120 -10 -65 -3 -78 -1
-97 17 -19 18 -50 18 -39 0 4 -7 10 -63 22 -217 9 -124 17 -161 44 -221 36
-80 85 -133 162 -175 59 -31 70 -34 163 -36 116 -2 181 17 239 70 72 66 98
190 76 352 -11 79 -19 161 -26 260 -4 44 -7 80 -8 80 0 1 -11 -1 -23 -3z m-4
-291 c14 -86 4 -171 -24 -213 -76 -114 -284 -148 -427 -71 -74 40 -104 97
-114 219 -8 88 -24 81 206 99 41 3 86 8 100 10 14 2 70 7 125 10 55 4 102 9
104 11 10 10 22 -16 30 -65z"/>
<path d="M745 5278 c-2 -7 -6 -77 -9 -156 -6 -142 -5 -143 16 -140 14 2 22 12
25 28 7 48 22 51 223 45 259 -8 343 -14 354 -25 5 -5 10 -22 10 -37 2 -21 8
-29 24 -31 21 -3 22 0 23 90 1 51 2 120 3 153 1 53 -1 60 -18 60 -14 0 -20 -8
-23 -30 -2 -16 -8 -34 -13 -39 -9 -9 -105 -9 -350 -1 -203 7 -220 11 -225 59
-1 11 -3 24 -4 29 -2 12 -31 8 -36 -5z"/>
<path d="M766 4832 l-28 -4 7 -56 c4 -31 9 -66 11 -77 3 -26 32 -254 40 -325
4 -30 8 -62 10 -70 1 -8 3 -30 3 -48 1 -33 1 -33 39 -26 44 9 69 12 100 13 16
1 22 7 22 25 0 20 -5 24 -32 24 -60 -1 -65 1 -72 35 -13 64 -18 135 -9 140 4
3 35 8 68 11 33 3 76 8 95 11 19 2 58 7 85 10 28 4 61 8 75 10 101 14 167 19
215 16 8 -1 18 -16 23 -33 10 -38 48 -48 46 -13 -2 27 -26 226 -30 245 -1 8
-3 21 -3 28 -1 6 -10 12 -21 12 -16 0 -20 -7 -20 -34 0 -49 -4 -51 -140 -71
-14 -2 -52 -7 -85 -11 -33 -3 -68 -8 -78 -10 -10 -2 -44 -6 -75 -9 -31 -3 -84
-10 -117 -14 -33 -5 -61 -8 -62 -7 -2 2 -10 47 -18 109 -7 57 3 73 48 83 43 9
47 12 40 29 -5 15 -49 17 -137 7z"/>
<path d="M8973 4740 c-60 -13 -115 -65 -141 -135 -16 -43 -38 -146 -36 -172 6
-93 38 -163 87 -196 34 -22 132 -54 192 -62 95 -12 287 -54 301 -66 8 -6 14
-24 14 -40 0 -22 5 -29 20 -29 11 0 20 3 21 8 4 41 27 165 35 195 4 13 -1 17
-20 17 -19 0 -26 -6 -31 -31 -4 -17 -14 -33 -22 -36 -17 -7 -254 30 -368 58
-89 21 -126 50 -143 112 -12 44 3 131 30 176 35 56 102 69 228 46 14 -3 54
-10 90 -16 127 -20 215 -41 222 -52 4 -7 8 -25 8 -40 0 -16 7 -30 15 -34 20
-7 27 0 30 31 2 13 6 37 9 53 3 15 9 46 12 68 3 22 7 45 9 50 16 74 17 88 4
96 -22 14 -27 11 -34 -21 -6 -26 -35 -56 -46 -46 -2 2 -26 6 -54 10 -27 3 -75
10 -105 16 -30 5 -68 12 -85 15 -16 2 -41 7 -55 10 -14 3 -52 8 -85 11 -33 4
-62 7 -65 9 -3 1 -20 -1 -37 -5z"/>
<path d="M1277 4180 c-95 -36 -111 -74 -102 -240 6 -124 6 -126 -18 -152 -76
-82 -193 -15 -201 114 -4 58 16 94 59 108 25 8 35 18 35 32 0 17 -5 19 -37 14
-21 -3 -56 -9 -78 -12 -22 -3 -42 -7 -43 -9 -9 -9 -4 -116 8 -165 42 -178 156
-259 297 -211 57 19 87 44 103 86 11 27 13 124 6 217 -3 42 18 94 44 108 52
28 130 10 166 -38 33 -42 44 -127 24 -187 -12 -36 -22 -43 -93 -68 -14 -5 -16
-11 -8 -25 9 -17 14 -17 90 -2 90 17 91 18 91 110 0 232 -166 387 -343 320z"/>
<path d="M8721 4008 c-19 -51 -38 -98 -42 -104 -11 -14 -1 -24 23 -24 11 0 23
11 28 25 9 24 19 29 50 26 31 -4 399 -146 392 -152 -4 -3 -124 -45 -266 -93
-371 -125 -357 -119 -383 -165 l-23 -40 38 -12 c60 -19 447 -166 499 -189 57
-25 63 -34 53 -71 -7 -24 -5 -31 11 -39 15 -9 21 -7 25 7 4 10 22 56 40 102
18 46 31 88 28 92 -10 17 -35 9 -46 -16 -6 -13 -18 -26 -27 -28 -14 -3 -116
27 -178 54 -13 5 -33 13 -45 18 -13 6 -56 22 -95 37 -40 15 -73 31 -73 34 0 6
500 178 534 184 45 8 54 20 88 109 28 74 33 94 22 100 -19 11 -33 1 -45 -30
-15 -39 -11 -40 -394 109 -71 28 -136 56 -143 61 -9 7 -11 22 -7 45 6 32 -4
51 -25 52 -3 0 -21 -42 -39 -92z"/>
<path d="M1660 3608 c-156 -87 -501 -257 -513 -252 -8 3 -20 16 -27 30 -8 14
-20 22 -28 19 -7 -3 -18 -5 -23 -5 -5 0 14 -45 42 -101 37 -74 55 -99 67 -97
17 4 20 18 9 53 -4 11 -3 26 1 32 7 11 372 204 372 197 0 -5 -40 -105 -55
-139 -8 -16 -26 -59 -40 -95 -29 -71 -51 -119 -114 -253 l-41 -87 46 -90 c41
-80 48 -89 65 -79 15 8 17 14 9 29 -16 30 -12 54 13 70 12 7 122 65 245 127
234 119 251 124 267 73 7 -22 13 -24 35 -10 21 13 -72 200 -101 200 -21 0 -25
-21 -8 -51 8 -16 7 -25 -6 -39 -15 -17 -395 -216 -395 -207 0 2 6 17 14 33 8
16 37 83 66 149 28 66 60 138 70 160 78 175 111 269 105 304 -10 61 -15 62
-75 29z"/>
<path d="M8475 3211 c-151 -37 -277 -185 -330 -390 -19 -73 -16 -87 22 -104
61 -27 115 -69 112 -89 -7 -58 20 -49 61 20 19 31 38 59 42 60 5 2 8 8 8 14 0
5 14 29 30 53 34 50 36 60 14 69 -11 4 -22 -1 -32 -16 -43 -61 -46 -62 -112
-21 -70 44 -75 62 -34 139 32 60 65 91 124 117 106 47 270 1 364 -103 46 -51
66 -100 66 -164 0 -94 -76 -213 -159 -251 -39 -17 -41 -17 -81 4 -37 19 -41
19 -47 5 -9 -24 106 -125 128 -113 24 12 120 114 153 162 90 132 119 277 77
387 -57 150 -255 257 -406 221z"/>
<path d="M2045 2976 c-17 -12 -17 -15 -2 -37 10 -13 17 -29 17 -36 0 -16 -197
-161 -403 -297 l-59 -38 -27 26 c-18 17 -34 24 -44 20 -10 -3 -17 -8 -17 -10
0 -2 37 -58 82 -124 75 -110 101 -134 121 -114 3 4 0 16 -8 28 -33 47 -33 47
233 234 96 67 186 125 200 129 19 4 30 1 43 -15 20 -25 30 -27 47 -10 8 8 4
20 -17 47 -15 20 -55 75 -88 123 -54 79 -62 86 -78 74z"/>
<path d="M2536 2125 c-101 -35 -146 -148 -98 -247 61 -126 255 -123 313 5 24
53 24 94 0 149 -34 79 -131 121 -215 93z"/>
<path d="M7647 2130 c-43 -13 -92 -55 -112 -96 -35 -74 -12 -162 58 -217 32
-26 46 -31 95 -31 103 0 169 58 179 158 5 47 2 61 -21 100 -40 68 -129 106
-199 86z"/>
<path d="M6211 1459 c-90 -19 -151 -73 -172 -153 -10 -37 -8 -151 4 -201 45
-190 111 -307 190 -340 43 -18 122 -14 169 9 130 63 155 203 80 448 -60 193
-142 265 -271 237z m53 -87 c38 -35 107 -207 142 -357 28 -118 17 -175 -36
-193 -65 -23 -111 35 -174 220 -42 122 -64 223 -61 274 4 73 76 104 129 56z"/>
<path d="M3971 1430 l-104 -5 -4 -39 c-4 -37 -3 -38 22 -32 14 4 46 9 72 12
26 3 51 7 54 10 16 9 19 -17 8 -58 -6 -24 -13 -50 -14 -58 -8 -33 -48 -172
-80 -276 -22 -71 -41 -114 -51 -118 -9 -4 -39 -3 -66 0 -38 5 -52 3 -59 -7
-15 -23 -11 -27 44 -39 28 -6 111 -29 184 -51 72 -21 136 -39 142 -39 6 0 11
8 11 18 0 11 -18 25 -50 39 -28 12 -50 28 -50 35 1 20 13 68 63 243 19 66 36
126 38 134 2 7 20 62 40 123 25 73 33 111 25 114 -11 4 -26 4 -225 -6z"/>
<path d="M4700 1320 c-63 -21 -93 -49 -127 -118 -22 -44 -26 -68 -26 -128 1
-84 19 -125 74 -162 48 -34 131 -28 185 13 l37 28 -6 -29 c-31 -155 -126 -252
-237 -242 -57 6 -69 -7 -33 -36 20 -15 35 -18 83 -13 159 17 287 141 326 316
38 170 -7 324 -106 363 -57 22 -119 25 -170 8z m116 -61 c42 -34 58 -158 30
-231 -12 -32 -57 -57 -92 -50 -28 5 -65 40 -72 68 -12 42 -5 141 12 175 26 54
82 72 122 38z"/>
<path d="M5438 1312 c-30 -7 -70 -26 -88 -41 -32 -26 -32 -29 -35 -114 -2 -85
-1 -87 22 -87 18 0 23 5 23 24 0 62 40 105 103 112 80 8 123 -47 114 -145 -6
-77 -38 -134 -155 -280 -79 -99 -98 -128 -94 -148 5 -25 7 -25 61 -19 98 12
170 19 351 31 19 2 38 3 42 4 8 1 3 105 -6 119 -4 6 -20 7 -43 1 -21 -4 -38
-8 -38 -7 0 1 -163 -14 -194 -18 -41 -5 -43 -10 78 133 118 139 155 228 129
319 -10 37 -50 89 -81 106 -37 19 -129 25 -189 10z"/>
</g>
</svg>
